<svg width="22" height="22" viewBox="0 0 22 22" fill="none" xmlns="http://www.w3.org/2000/svg">
<path d="M1.50018 0.5C1.25952 0.5 1.02872 0.592187 0.858547 0.756282C0.688375 0.920376 0.592773 1.14294 0.592773 1.375C0.592773 1.60706 0.688375 1.82962 0.858547 1.99372C1.02872 2.15781 1.25952 2.25 1.50018 2.25H1.94663C2.14366 2.25033 2.33523 2.31249 2.49239 2.4271C2.64955 2.5417 2.76375 2.70252 2.81774 2.88525L5.69603 12.5977C5.85883 13.1459 6.20226 13.628 6.6744 13.9712C7.14655 14.3144 7.72173 14.5 8.31299 14.5H16.6049C17.149 14.5001 17.6808 14.3429 18.1314 14.0488C18.582 13.7546 18.9309 13.337 19.1329 12.8498L21.808 6.39925C21.9179 6.13382 21.9588 5.84646 21.927 5.56228C21.8952 5.2781 21.7917 5.00575 21.6256 4.76905C21.4594 4.53235 21.2357 4.3385 20.9739 4.20443C20.7121 4.07037 20.4202 4.00018 20.1238 4H5.03544L4.56177 2.404C4.39939 1.85585 4.05638 1.37358 3.58457 1.03007C3.11276 0.686562 2.53781 0.500498 1.94663 0.5H1.50018ZM7.44188 12.1147L5.55448 5.75H20.1238L17.447 12.2005C17.3795 12.3627 17.2633 12.5017 17.1132 12.5997C16.9632 12.6976 16.7861 12.75 16.6049 12.75H8.31299C8.11596 12.7497 7.92439 12.6875 7.76723 12.5729C7.61007 12.4583 7.49587 12.2975 7.44188 12.1147ZM8.75944 21.5C9.11693 21.5 9.47091 21.4321 9.80119 21.3002C10.1315 21.1683 10.4316 20.9749 10.6843 20.7312C10.9371 20.4874 11.1376 20.198 11.2744 19.8795C11.4112 19.5611 11.4817 19.2197 11.4817 18.875C11.4817 18.5303 11.4112 18.1889 11.2744 17.8705C11.1376 17.552 10.9371 17.2626 10.6843 17.0188C10.4316 16.7751 10.1315 16.5817 9.80119 16.4498C9.47091 16.3179 9.11693 16.25 8.75944 16.25C8.03746 16.25 7.34505 16.5266 6.83454 17.0188C6.32402 17.5111 6.03722 18.1788 6.03722 18.875C6.03722 19.5712 6.32402 20.2389 6.83454 20.7312C7.34505 21.2234 8.03746 21.5 8.75944 21.5ZM8.75944 19.75C8.51878 19.75 8.28798 19.6578 8.11781 19.4937C7.94763 19.3296 7.85203 19.1071 7.85203 18.875C7.85203 18.6429 7.94763 18.4204 8.11781 18.2563C8.28798 18.0922 8.51878 18 8.75944 18C9.0001 18 9.2309 18.0922 9.40107 18.2563C9.57124 18.4204 9.66685 18.6429 9.66685 18.875C9.66685 19.1071 9.57124 19.3296 9.40107 19.4937C9.2309 19.6578 9.0001 19.75 8.75944 19.75ZM16.0187 21.5C16.3762 21.5 16.7302 21.4321 17.0604 21.3002C17.3907 21.1683 17.6908 20.9749 17.9436 20.7312C18.1964 20.4874 18.3969 20.198 18.5337 19.8795C18.6705 19.5611 18.7409 19.2197 18.7409 18.875C18.7409 18.5303 18.6705 18.1889 18.5337 17.8705C18.3969 17.552 18.1964 17.2626 17.9436 17.0188C17.6908 16.7751 17.3907 16.5817 17.0604 16.4498C16.7302 16.3179 16.3762 16.25 16.0187 16.25C15.2967 16.25 14.6043 16.5266 14.0938 17.0188C13.5833 17.5111 13.2965 18.1788 13.2965 18.875C13.2965 19.5712 13.5833 20.2389 14.0938 20.7312C14.6043 21.2234 15.2967 21.5 16.0187 21.5ZM16.0187 19.75C15.778 19.75 15.5472 19.6578 15.3771 19.4937C15.2069 19.3296 15.1113 19.1071 15.1113 18.875C15.1113 18.6429 15.2069 18.4204 15.3771 18.2563C15.5472 18.0922 15.778 18 16.0187 18C16.2594 18 16.4902 18.0922 16.6603 18.2563C16.8305 18.4204 16.9261 18.6429 16.9261 18.875C16.9261 19.1071 16.8305 19.3296 16.6603 19.4937C16.4902 19.6578 16.2594 19.75 16.0187 19.75Z" fill="#918F8F"/>
</svg>
