<svg width="30" height="20" viewBox="0 0 30 20" fill="none" xmlns="http://www.w3.org/2000/svg">
<rect x="19" y="8" width="11" height="1.5" rx="0.75" fill="#918F8F"/>
<rect x="18" y="11.5" width="12" height="1.5" rx="0.75" fill="#918F8F"/>
<rect x="16" y="15" width="14" height="1.5" rx="0.75" fill="#918F8F"/>
<path fill-rule="evenodd" clip-rule="evenodd" d="M15.7279 11.5972C17.3493 9.19104 16.7133 5.92758 14.3071 4.30626C11.9009 2.68494 8.63747 3.32091 7.01614 5.7271C5.39482 8.13328 6.03079 11.3967 8.43698 13.0181C10.8432 14.6394 14.1066 14.0034 15.7279 11.5972ZM4.1207 19.425C3.64 19.1002 3.51281 18.4475 3.83637 17.9659L6.45161 14.086C3.78686 11.6706 3.20565 7.62272 5.27463 4.55349C7.54329 1.18527 12.1132 0.294713 15.4816 2.5644C18.8498 4.83305 19.7405 9.40395 17.4707 12.7713C15.4029 15.8414 11.4329 16.8227 8.19372 15.2599L5.57869 19.1408C5.25492 19.6213 4.60223 19.7485 4.1207 19.425Z" fill="#918F8F"/>
</svg>
