<svg width="17" height="17" viewBox="0 0 17 17" fill="none" xmlns="http://www.w3.org/2000/svg">
<path fill-rule="evenodd" clip-rule="evenodd" d="M0 2C0 0.89543 0.895431 0 2 0H15C16.1046 0 17 0.895431 17 2V15C17 16.1046 16.1046 17 15 17H2C0.89543 17 0 16.1046 0 15V2Z" fill="#EE2722"/>
<path fill-rule="evenodd" clip-rule="evenodd" d="M13.5431 4.54355C13.1839 4.15215 12.5874 4.15215 12.2282 4.54355L6.94154 10.2964L4.77943 7.91844C4.40666 7.53443 3.82377 7.53443 3.45099 7.93321C3.09855 8.33199 3.09855 8.96709 3.45777 9.37326L6.24343 12.3937L6.2841 12.4454C6.6501 12.8515 7.23976 12.8515 7.60576 12.4454L13.5431 5.97622C13.9023 5.57743 13.9023 4.93495 13.5431 4.54355Z" fill="white"/>
<mask id="mask0_2104_73" style="mask-type:luminance" maskUnits="userSpaceOnUse" x="3" y="4" width="11" height="9">
<path fill-rule="evenodd" clip-rule="evenodd" d="M13.5431 4.54355C13.1839 4.15215 12.5874 4.15215 12.2282 4.54355L6.94154 10.2964L4.77943 7.91844C4.40666 7.53443 3.82377 7.53443 3.45099 7.93321C3.09855 8.33199 3.09855 8.96709 3.45777 9.37326L6.24343 12.3937L6.2841 12.4454C6.6501 12.8515 7.23976 12.8515 7.60576 12.4454L13.5431 5.97622C13.9023 5.57743 13.9023 4.93495 13.5431 4.54355Z" fill="white"/>
</mask>
<g mask="url(#mask0_2104_73)">
</g>
</svg>
