<svg width="25" height="25" viewBox="0 0 25 25" fill="none" xmlns="http://www.w3.org/2000/svg">
<g clip-path="url(#clip0_73_14176)">
<path d="M25 14.0857C25 13.8414 24.9106 13.6056 24.7486 13.4227L20.8121 8.97817C20.6223 8.76387 20.3497 8.6412 20.0635 8.6412H16.3563C16.3563 7.53663 15.4609 6.63742 14.3563 6.63742H11.3967C10.4432 4.59921 8.37311 3.18359 5.97837 3.18359C2.68199 3.18359 0 5.86558 0 9.16201C0 11.4506 1.29296 13.4426 3.18653 14.447V17.1672C3.18653 18.2717 4.08196 19.1672 5.18653 19.1672H5.46051C5.52143 20.6378 6.73638 21.8156 8.22168 21.8156C9.70699 21.8156 10.9219 20.6378 10.9829 19.1672H17.2036C17.2645 20.6378 18.4795 21.8156 19.9648 21.8156C21.4501 21.8156 22.6651 20.6378 22.726 19.1672H23C24.1046 19.1672 25 18.2717 25 17.1672V14.0857ZM1.04168 9.16201C1.04168 6.43982 3.25622 4.22523 5.97842 4.22523C8.70056 4.22523 10.9152 6.43982 10.9152 9.16201C10.9152 11.8842 8.70056 14.0987 5.97842 14.0987C3.25617 14.0987 1.04168 11.8842 1.04168 9.16201ZM8.22168 20.774C7.27184 20.774 6.49924 20.0013 6.49924 19.0515C6.49924 18.1017 7.27184 17.3291 8.22168 17.3291C9.17153 17.3291 9.94413 18.1017 9.94413 19.0515C9.94413 20.0013 9.17153 20.774 8.22168 20.774ZM15.3147 18.1255H10.8257C10.4441 17.0555 9.42107 16.2874 8.22168 16.2874C7.0223 16.2874 5.99929 17.0556 5.61765 18.1255H5.22816C4.67588 18.1255 4.22816 17.6778 4.22816 17.1255V14.8788C4.78199 15.0487 5.36964 15.1404 5.97837 15.1404C9.2748 15.1404 11.9567 12.4584 11.9567 9.16206C11.9567 8.65038 11.892 8.15349 11.7705 7.67915H14.3146C14.8669 7.67915 15.3146 8.12687 15.3146 8.67915L15.3147 18.1255ZM19.9648 20.774C19.0149 20.774 18.2423 20.0013 18.2423 19.0515C18.2423 18.1017 19.0149 17.3291 19.9648 17.3291C20.9147 17.3291 21.6873 18.1017 21.6873 19.0515C21.6873 20.0013 20.9147 20.774 19.9648 20.774ZM23.9583 17.1255C23.9583 17.6778 23.5106 18.1255 22.9583 18.1255H22.5689C22.1872 17.0555 21.1642 16.2874 19.9648 16.2874C18.7655 16.2874 17.7424 17.0556 17.3608 18.1255H16.3564V9.68288H19.5945C19.8808 9.68288 20.1534 9.80557 20.3432 10.0199L23.7069 13.818C23.8689 14.0008 23.9583 14.2367 23.9583 14.481V17.1255Z" fill="#918F8F" stroke="#918F8F" stroke-width="0.25"/>
<path d="M8.06304 10.352C8.20204 10.1134 8.12127 9.80725 7.88265 9.66826L6.74755 9.00712C6.59378 8.91756 6.4992 8.75302 6.4992 8.57507V5.88477C6.4992 5.60862 6.27535 5.38477 5.9992 5.38477H5.95752C5.68138 5.38477 5.45752 5.60862 5.45752 5.88477V9.17377C5.45752 9.3517 5.55208 9.51623 5.70583 9.6058L7.35827 10.5685C7.59688 10.7075 7.90301 10.6267 8.042 10.3881L8.06304 10.352Z" fill="#918F8F" stroke="#918F8F" stroke-width="0.25"/>
</g>
<defs>
<clipPath id="clip0_73_14176">
<rect width="25" height="25" fill="white"/>
</clipPath>
</defs>
</svg>
