<svg width="28" height="15" viewBox="0 0 28 15" fill="none" xmlns="http://www.w3.org/2000/svg">
<path fill-rule="evenodd" clip-rule="evenodd" d="M7.49991 12.5C7.49991 12.8452 7.22009 13.125 6.87491 13.125H0.624909C0.279731 13.125 -9.15527e-05 12.8452 -9.15527e-05 12.5C-9.15527e-05 12.1548 0.27973 11.875 0.624908 11.875H6.87491C7.22009 11.875 7.49991 12.1548 7.49991 12.5ZM27.4999 12.5C27.4999 12.8452 27.2201 13.125 26.8749 13.125H13.7499C13.4047 13.125 13.1249 12.8452 13.1249 12.5C13.1249 12.1548 13.4047 11.875 13.7499 11.875H26.8749C27.2201 11.875 27.4999 12.1548 27.4999 12.5Z" fill="#231F20"/>
<path fill-rule="evenodd" clip-rule="evenodd" d="M14.9999 7.5C14.9999 7.84518 14.7201 8.125 14.3749 8.125H0.624909C0.279731 8.125 -9.15527e-05 7.84518 -9.15527e-05 7.5C-9.15527e-05 7.15482 0.279731 6.875 0.624909 6.875H14.3749C14.7201 6.875 14.9999 7.15482 14.9999 7.5ZM27.4999 7.5C27.4999 7.84518 27.2201 8.125 26.8749 8.125H20.6249C20.2797 8.125 19.9999 7.84518 19.9999 7.5C19.9999 7.15482 20.2797 6.875 20.6249 6.875H26.8749C27.2201 6.875 27.4999 7.15482 27.4999 7.5Z" fill="#231F20"/>
<path fill-rule="evenodd" clip-rule="evenodd" d="M4.37491 2.5C4.37491 2.84518 4.09509 3.125 3.74991 3.125H0.624909C0.279731 3.125 -9.15527e-05 2.84518 -9.15527e-05 2.5C-9.15527e-05 2.15482 0.27973 1.875 0.624908 1.875H3.74991C4.09509 1.875 4.37491 2.15482 4.37491 2.5ZM27.4999 2.5C27.4999 2.84518 27.2201 3.125 26.8749 3.125H10.6249C10.2797 3.125 9.99991 2.84518 9.99991 2.5C9.99991 2.15482 10.2797 1.875 10.6249 1.875H26.8749C27.2201 1.875 27.4999 2.15482 27.4999 2.5Z" fill="#231F20"/>
<path fill-rule="evenodd" clip-rule="evenodd" d="M6.24991 3.75C6.94026 3.75 7.49991 3.19036 7.49991 2.5C7.49991 1.80964 6.94026 1.25 6.24991 1.25C5.55955 1.25 4.99991 1.80964 4.99991 2.5C4.99991 3.19036 5.55955 3.75 6.24991 3.75ZM6.24991 5C7.63062 5 8.74991 3.88071 8.74991 2.5C8.74991 1.11929 7.63062 0 6.24991 0C4.8692 0 3.74991 1.11929 3.74991 2.5C3.74991 3.88071 4.8692 5 6.24991 5Z" fill="#231F20"/>
<path fill-rule="evenodd" clip-rule="evenodd" d="M18.7501 8.75C19.4404 8.75 20.0001 8.19036 20.0001 7.5C20.0001 6.80964 19.4404 6.25 18.7501 6.25C18.0597 6.25 17.5001 6.80964 17.5001 7.5C17.5001 8.19036 18.0597 8.75 18.7501 8.75ZM18.7501 10C20.1308 10 21.2501 8.88071 21.2501 7.5C21.2501 6.11929 20.1308 5 18.7501 5C17.3693 5 16.2501 6.11929 16.2501 7.5C16.2501 8.88071 17.3693 10 18.7501 10Z" fill="#231F20"/>
<path fill-rule="evenodd" clip-rule="evenodd" d="M11.2501 13.75C11.9404 13.75 12.5001 13.1904 12.5001 12.5C12.5001 11.8096 11.9404 11.25 11.2501 11.25C10.5597 11.25 10.0001 11.8096 10.0001 12.5C10.0001 13.1904 10.5597 13.75 11.2501 13.75ZM11.2501 15C12.6308 15 13.7501 13.8807 13.7501 12.5C13.7501 11.1193 12.6308 10 11.2501 10C9.86935 10 8.75006 11.1193 8.75006 12.5C8.75006 13.8807 9.86935 15 11.2501 15Z" fill="#231F20"/>
</svg>
