<svg width="23" height="23" viewBox="0 0 23 23" fill="none" xmlns="http://www.w3.org/2000/svg">
<path d="M21.5624 10.7809C21.4126 10.7799 21.2669 10.7322 21.1456 10.6443L11.4999 3.75867L1.85431 10.6443C1.69956 10.7359 1.51608 10.7663 1.34008 10.7292C1.16408 10.6922 1.00836 10.5905 0.903656 10.4443C0.79895 10.2981 0.75287 10.1179 0.774512 9.93938C0.796154 9.76084 0.883945 9.5969 1.02056 9.47992L11.0831 2.29242C11.2048 2.20575 11.3505 2.15918 11.4999 2.15918C11.6494 2.15918 11.7951 2.20575 11.9168 2.29242L21.9793 9.47992C22.102 9.56876 22.1935 9.69411 22.2408 9.83805C22.288 9.982 22.2885 10.1372 22.2423 10.2815C22.1961 10.4257 22.1054 10.5517 21.9833 10.6414C21.8612 10.7311 21.7139 10.7799 21.5624 10.7809Z" fill="#EE2722"/>
<path d="M3.59375 6.46875C3.40313 6.46875 3.22031 6.39302 3.08552 6.25823C2.95073 6.12344 2.875 5.94062 2.875 5.75V2.875C2.875 2.68438 2.95073 2.50156 3.08552 2.36677C3.22031 2.23198 3.40313 2.15625 3.59375 2.15625H6.46875C6.65937 2.15625 6.84219 2.23198 6.97698 2.36677C7.11177 2.50156 7.1875 2.68438 7.1875 2.875C7.1875 3.06562 7.11177 3.24844 6.97698 3.38323C6.84219 3.51802 6.65937 3.59375 6.46875 3.59375H4.3125V5.75C4.3125 5.94062 4.23677 6.12344 4.10198 6.25823C3.96719 6.39302 3.78437 6.46875 3.59375 6.46875Z" fill="#EE2722"/>
<path d="M17.9688 20.8438H14.375C14.1844 20.8438 14.0016 20.768 13.8668 20.6332C13.732 20.4984 13.6562 20.3156 13.6562 20.125V15.0938H9.34375V20.125C9.34375 20.3156 9.26802 20.4984 9.13323 20.6332C8.99844 20.768 8.81562 20.8438 8.625 20.8438H5.03125C4.45938 20.8438 3.91093 20.6166 3.50655 20.2122C3.10218 19.8078 2.875 19.2594 2.875 18.6875V11.5C2.875 11.3094 2.95073 11.1266 3.08552 10.9918C3.22031 10.857 3.40313 10.7812 3.59375 10.7812C3.78437 10.7812 3.96719 10.857 4.10198 10.9918C4.23677 11.1266 4.3125 11.3094 4.3125 11.5V18.6875C4.3125 18.8781 4.38823 19.0609 4.52302 19.1957C4.65781 19.3305 4.84063 19.4062 5.03125 19.4062H7.90625V14.375C7.90625 14.1844 7.98198 14.0016 8.11677 13.8668C8.25156 13.732 8.43438 13.6562 8.625 13.6562H14.375C14.5656 13.6562 14.7484 13.732 14.8832 13.8668C15.018 14.0016 15.0938 14.1844 15.0938 14.375V19.4062H17.9688C18.1594 19.4062 18.3422 19.3305 18.477 19.1957C18.6118 19.0609 18.6875 18.8781 18.6875 18.6875V11.5C18.6875 11.3094 18.7632 11.1266 18.898 10.9918C19.0328 10.857 19.2156 10.7812 19.4062 10.7812C19.5969 10.7812 19.7797 10.857 19.9145 10.9918C20.0493 11.1266 20.125 11.3094 20.125 11.5V18.6875C20.125 19.2594 19.8978 19.8078 19.4935 20.2122C19.0891 20.6166 18.5406 20.8438 17.9688 20.8438Z" fill="#EE2722"/>
</svg>
