<svg width="20" height="20" viewBox="0 0 20 20" fill="none" xmlns="http://www.w3.org/2000/svg">
<g clip-path="url(#clip0_73_14180)">
<path d="M12.8199 7.62012L6.77994 12.4201C6.65994 12.5201 6.61994 12.7201 6.73994 12.8401C6.79994 12.9201 6.87994 12.9601 6.97994 12.9601C7.03994 12.9601 7.11994 12.9401 7.15994 12.9001L13.1999 8.10012C13.3199 8.00012 13.3599 7.80012 13.2399 7.68012C13.1399 7.54012 12.9599 7.52012 12.8199 7.62012Z" fill="#918F8F" stroke="#918F8F" stroke-width="0.5"/>
<path d="M8.39982 9.76013C8.47982 9.76013 8.55982 9.76013 8.63982 9.74013C9.45982 9.62013 10.0398 8.84013 9.89982 8.00013C9.83982 7.60013 9.61982 7.24013 9.29982 7.00013C8.97982 6.76013 8.57982 6.66013 8.17982 6.72013C7.77982 6.78013 7.41982 7.00013 7.17982 7.32013C6.93982 7.64013 6.83982 8.04013 6.89982 8.44013C7.01982 9.22013 7.67982 9.76013 8.39982 9.76013ZM8.25982 7.34013C8.29982 7.34013 8.35982 7.32013 8.39982 7.32013C8.83982 7.32013 9.23982 7.64013 9.29982 8.10013C9.37982 8.60013 9.03982 9.06013 8.53982 9.14013C8.03982 9.22013 7.57982 8.88013 7.49982 8.38013C7.41982 7.88013 7.77982 7.42013 8.25982 7.34013Z" fill="#918F8F" stroke="#918F8F" stroke-width="0.5"/>
<path d="M11.5998 10.7598C10.7598 10.7598 10.0798 11.4398 10.0798 12.2798C10.0798 13.1198 10.7598 13.7998 11.5998 13.7998C12.4398 13.7998 13.1198 13.1198 13.1198 12.2798C13.0998 11.4398 12.4198 10.7598 11.5998 10.7598ZM11.5998 13.1798C11.0998 13.1798 10.6798 12.7598 10.6798 12.2598C10.6798 11.7598 11.0998 11.3398 11.5998 11.3398C12.0998 11.3398 12.5198 11.7598 12.5198 12.2598C12.4998 12.7798 12.0998 13.1798 11.5998 13.1798Z" fill="#918F8F" stroke="#918F8F" stroke-width="0.5"/>
<path d="M19.0799 10.0599C19.0799 10.0399 19.0999 9.99988 19.0999 9.97988C19.0999 9.11988 18.1999 8.67988 17.4199 8.29988C16.8599 8.01988 16.2599 7.71988 16.0999 7.35988C15.9399 6.97988 16.1599 6.35988 16.3799 5.77988C16.6799 4.95988 16.9799 4.11988 16.4199 3.55988C15.8599 2.99988 15.0599 3.19988 14.2599 3.37988C13.6999 3.49988 13.1199 3.63988 12.7399 3.47988C12.3599 3.31988 12.0399 2.81988 11.7399 2.33988C11.2999 1.65988 10.8199 0.879883 9.97988 0.879883C9.13988 0.879883 8.65988 1.65988 8.23988 2.35988C7.93988 2.85988 7.63988 3.35988 7.25988 3.51988C6.87988 3.67988 6.27988 3.53988 5.71988 3.39988C4.91988 3.19988 4.09988 2.99988 3.55988 3.53988C2.99988 4.09988 3.27988 4.93988 3.53988 5.75988C3.73988 6.35988 3.91988 6.95988 3.75988 7.35988C3.59988 7.73988 3.03988 8.01988 2.49988 8.29988C1.73988 8.69988 0.879883 9.13988 0.879883 9.97988C0.879883 9.99988 0.879883 10.0399 0.899883 10.0599C0.899883 10.0799 0.879883 10.1199 0.879883 10.1399C0.879883 10.9799 1.73988 11.4399 2.49988 11.8199C3.03988 12.0999 3.59988 12.3799 3.75988 12.7599C3.91988 13.1399 3.71988 13.7599 3.53988 14.3599C3.27988 15.1799 2.99988 16.0199 3.55988 16.5799C4.11988 17.1399 4.93988 16.9199 5.71988 16.7199C6.27988 16.5799 6.87988 16.4399 7.25988 16.5999C7.63988 16.7599 7.93988 17.2599 8.23988 17.7599C8.65988 18.4599 9.13988 19.2399 9.97988 19.2399C10.8199 19.2399 11.3199 18.4599 11.7399 17.7799C12.0399 17.2999 12.3599 16.7999 12.7399 16.6399C13.1399 16.4799 13.6999 16.5999 14.2599 16.7399C15.0399 16.9199 15.8599 17.1199 16.4199 16.5599C16.9799 15.9999 16.6799 15.1599 16.3799 14.3399C16.1599 13.7399 15.9399 13.1399 16.0999 12.7599C16.2599 12.3799 16.8399 12.0999 17.4199 11.8199C18.1999 11.4199 19.0999 10.9799 19.0999 10.1399C19.0999 10.0999 19.0799 10.0799 19.0799 10.0599ZM17.1399 11.2799C16.4799 11.6199 15.7799 11.9599 15.5399 12.5399C15.2799 13.1399 15.5599 13.8599 15.7999 14.5599C16.0399 15.2199 16.2799 15.8599 15.9799 16.1399C15.6599 16.4599 15.0399 16.3199 14.3799 16.1599C13.7199 15.9999 13.0599 15.8599 12.4799 16.0999C11.9199 16.3399 11.5599 16.8999 11.2199 17.4599C10.8399 18.0599 10.4799 18.6399 9.95988 18.6399C9.45988 18.6399 9.09988 18.0599 8.71988 17.4399C8.37988 16.8599 8.01988 16.2799 7.45988 16.0399C6.87988 15.7999 6.19988 15.9599 5.53988 16.1399C4.87988 16.2999 4.25988 16.4599 3.93988 16.1599C3.63988 15.8599 3.83988 15.2199 4.05988 14.5599C4.27988 13.8599 4.51988 13.1399 4.25988 12.5599C4.01988 11.9799 3.35988 11.6399 2.71988 11.3199C2.05988 10.9799 1.43988 10.6599 1.43988 10.1599C1.43988 10.1399 1.43988 10.0999 1.41988 10.0799C1.41988 10.0599 1.43988 10.0199 1.43988 9.99988C1.43988 9.51988 2.05988 9.19988 2.71988 8.83988C3.35988 8.51988 4.01988 8.17988 4.25988 7.59988C4.49988 6.99988 4.27988 6.27988 4.05988 5.59988C3.83988 4.91988 3.63988 4.27988 3.93988 3.99988C4.25988 3.67988 4.87988 3.83988 5.53988 4.01988C6.19988 4.17988 6.87988 4.35988 7.45988 4.11988C8.01988 3.87988 8.37988 3.29988 8.71988 2.71988C9.09988 2.09988 9.43988 1.51988 9.95988 1.51988C10.4799 1.51988 10.8399 2.09988 11.2199 2.69988C11.5799 3.25988 11.9399 3.81988 12.4799 4.05988C13.0599 4.29988 13.7199 4.13988 14.3799 3.99988C15.0399 3.83988 15.6599 3.69988 15.9799 4.01988C16.2799 4.29988 16.0399 4.93988 15.7999 5.59988C15.5399 6.29988 15.2799 7.01988 15.5399 7.61988C15.7799 8.19988 16.4799 8.53988 17.1399 8.87988C17.8399 9.21988 18.4799 9.55988 18.4799 10.0399C18.4799 10.0599 18.4799 10.0999 18.4999 10.1199C18.4999 10.1399 18.4799 10.1799 18.4799 10.1999C18.4999 10.5999 17.8399 10.9399 17.1399 11.2799Z" fill="#918F8F" stroke="#918F8F" stroke-width="0.5"/>
</g>
<defs>
<clipPath id="clip0_73_14180">
<rect width="20" height="20" fill="white"/>
</clipPath>
</defs>
</svg>
