<svg width="20" height="20" viewBox="0 0 20 20" fill="none" xmlns="http://www.w3.org/2000/svg">
<path fill-rule="evenodd" clip-rule="evenodd" d="M13.1459 4.32383C10.7089 1.88685 6.75957 1.88685 4.32258 4.32383C1.8856 6.76082 1.8856 10.7102 4.32258 13.1471C6.75957 15.5841 10.7089 15.5841 13.1459 13.1471C15.5829 10.7102 15.5829 6.76082 13.1459 4.32383ZM19.635 19.635C19.1471 20.1217 18.3573 20.1217 17.8694 19.635L13.94 15.7044C10.5185 18.2624 5.66696 18.0203 2.55865 14.9108C-0.852882 11.5005 -0.852882 5.97018 2.55865 2.55865C5.96893 -0.852882 11.5005 -0.852882 14.9108 2.55865C18.0203 5.66696 18.2624 10.5185 15.7044 13.94L19.635 17.8706C20.1217 18.3573 20.1217 19.1471 19.635 19.635Z" fill="#918F8F"/>
</svg>
