<svg width="13" height="13" viewBox="0 0 13 13" fill="none" xmlns="http://www.w3.org/2000/svg">
<g clip-path="url(#clip0_73_10356)">
<path d="M9.09998 13H3.83498C2.76248 13 1.91748 12.1225 1.91748 11.0825V5.2C1.91748 5.005 2.04748 4.875 2.24248 4.875C2.43748 4.875 2.56748 5.005 2.56748 5.2V11.0825C2.56748 11.7975 3.15248 12.35 3.83498 12.35H9.09998C9.81498 12.35 10.3675 11.765 10.3675 11.0825V5.2C10.3675 5.005 10.4975 4.875 10.6925 4.875C10.8875 4.875 11.0175 5.005 11.0175 5.2V11.0825C11.0175 12.1225 10.14 13 9.09998 13Z" fill="#918F8F"/>
<path d="M10.8225 1.5925H8.35253C8.19003 0.6825 7.41003 0 6.46753 0C5.52503 0 4.74503 0.6825 4.58253 1.5925H2.11253C1.36503 1.5925 0.780029 2.1775 0.780029 2.925C0.780029 3.6725 1.36503 4.225 2.11253 4.225H10.855C11.6025 4.225 12.1875 3.64 12.1875 2.8925C12.1875 2.145 11.57 1.5925 10.8225 1.5925ZM6.46753 0.65C7.05253 0.65 7.54003 1.04 7.67003 1.5925H5.23253C5.39503 1.04 5.88253 0.65 6.46753 0.65ZM10.8225 3.575H2.11253C1.75503 3.575 1.43003 3.2825 1.43003 2.8925C1.43003 2.535 1.72253 2.21 2.11253 2.21H10.855C11.2125 2.21 11.5375 2.5025 11.5375 2.8925C11.505 3.2825 11.2125 3.575 10.8225 3.575Z" fill="#918F8F"/>
<path d="M4.19243 11.4076C3.99743 11.4076 3.86743 11.2776 3.86743 11.0826V5.65508C3.86743 5.46008 3.99743 5.33008 4.19243 5.33008C4.38743 5.33008 4.51743 5.46008 4.51743 5.65508V11.0826C4.51743 11.2451 4.35493 11.4076 4.19243 11.4076Z" fill="#918F8F"/>
<path d="M8.74248 11.4076C8.54748 11.4076 8.41748 11.2776 8.41748 11.0826V5.65508C8.41748 5.46008 8.54748 5.33008 8.74248 5.33008C8.93748 5.33008 9.06748 5.46008 9.06748 5.65508V11.0826C9.06748 11.2451 8.90498 11.4076 8.74248 11.4076Z" fill="#918F8F"/>
<path d="M6.46758 11.4076C6.27258 11.4076 6.14258 11.2776 6.14258 11.0826V5.65508C6.14258 5.46008 6.27258 5.33008 6.46758 5.33008C6.66258 5.33008 6.79258 5.46008 6.79258 5.65508V11.0826C6.79258 11.2451 6.63008 11.4076 6.46758 11.4076Z" fill="#918F8F"/>
</g>
<defs>
<clipPath id="clip0_73_10356">
<rect width="13" height="13" fill="white"/>
</clipPath>
</defs>
</svg>
